{"title":"JUST TEENS PORN BRIDE DISSOLUTE SILVERDUST{HKRG}","uid":6237146,"size":572939605,"categoryP":"porn","categoryS":"movie_clips","magnet":"?xt=urn:btih:fb548b777e7269267d13c9d6d6193f64b4331990&amp;dn=JUST+TEENS+PORN+BRIDE+DISSOLUTE+SILVERDUST%7BHKRG%7D&amp;tr=udp%3A%2F%2Ftracker.openbittorrent.com%3A80&amp;tr=udp%3A%2F%2Fopen.demonii.com%3A1337&amp;tr=udp%3A%2F%2Ftracker.coppersurfer.tk%3A6969&amp;tr=udp%3A%2F%2Fexodus.desync.com%3A6969","seeders":0,"leechers":1,"uploader":"dodgerblue","files":6,"time":1299920782,"description":"JUST TEENS PORN BRIDE DISSOLUTE SILVERDUST{HKRG}\n\nFormat                           : Windows Media\nFile size                        : 544 MiB\nDuration                         : 24mn 27s\nOverall bit rate mode            : Variable\nOverall bit rate                 : 3 107 Kbps\nMaximum Overall bit rate         : 6 122 Kbps\nEncoded date                     : UTC 2008-03-12 00:56:31.781 &lt;a href=&quot;\nhttp://img2.immage.de/1203d60image49524140.jpg&quot; rel=&quot;nofollow&quot; target=&quot;_NEW&quot;&gt;\nhttp://img2.immage.de/1203d60image49524140.jpg&lt;/a&gt; &lt;a href=&quot;\nhttp://img3.immage.de/1203c5189image49529671.jpg&quot; rel=&quot;nofollow&quot; target=&quot;_NEW&quot;&gt;\nhttp://img3.immage.de/1203c5189image49529671.jpg&lt;/a&gt;\n[img]http://img2.immage.de/1203d60image49524140.jpg[/img]\n\n\n\n[img]http://img3.immage.de/1203c5189image49529671.jpg[/img]\n &lt;a href=&quot;\nhttp://www.leetleech.org/images/48205041759771714593.jpg&quot; rel=&quot;nofollow&quot; target=&quot;_NEW&quot;&gt;\nhttp://www.leetleech.org/images/48205041759771714593.jpg&lt;/a&gt;\n    &lt;a href=&quot;\thttp://www.leetleech.org/images/57089571182802069142.png&quot; rel=&quot;nofollow&quot; target=&quot;_NEW&quot;&gt;\thttp://www.leetleech.org/images/57089571182802069142.png&lt;/a&gt;\n    &lt;a href=&quot;\thttp://www.leetleech.org/images/72487845618660865516.png&quot; rel=&quot;nofollow&quot; target=&quot;_NEW&quot;&gt;\thttp://www.leetleech.org/images/72487845618660865516.png&lt;/a&gt;\n    &lt;a href=&quot;\thttp://www.leetleech.org/images/19130598637696008497.png&quot; rel=&quot;nofollow&quot; target=&quot;_NEW&quot;&gt;\thttp://www.leetleech.org/images/19130598637696008497.png&lt;/a&gt;\nVideo\nID                               : 2\nFormat                           : VC-1\nFormat profile                   : MP@ML\nCodec ID                         : WMV3\nCodec ID/Info                    : Windows Media Video 9\nCodec ID/Hint                    : WMV3\nDescription of the codec         : Windows Media Video 9 - Professional\nDuration                         : 24mn 27s\nBit rate mode                    : Variable\nBit rate                         : 3 000 Kbps\nWidth                            : 720 pixels\nHeight                           : 576 pixels\nDisplay aspect ratio             : 4:3\nFrame rate                       : 25.000 fps\nStandard                         : PAL\nBit depth                        : 8 bits\nScan type                        : Progressive\nCompression mode                 : Lossy\nBits/(Pixel*Frame)               : 0.289\nStream size                      : 525 MiB (97%)\n\nAudio\nID                               : 1\nFormat                           : WMA\nFormat version                   : Version 2\nCodec ID                         : 161\nCodec ID/Info                    : Windows Media Audio\nDescription of the codec         : Windows Media Audio 9.2 -  96 kbps, 44 kHz, stereo 2-pass CBR\nDuration                         : 24mn 27s\nBit rate mode                    : Constant\nBit rate                         : 96.0 Kbps\nChannel(s)                       : 2 channels\nSampling rate                    : 44.1 KHz\nBit depth                        : 16 bits\nStream size                      : 16.8 MiB (3%)\n\nNJOI","torrent":{"xt":"urn:btih:fb548b777e7269267d13c9d6d6193f64b4331990","amp;dn":"JUST+TEENS+PORN+BRIDE+DISSOLUTE+SILVERDUST%7BHKRG%7D","amp;tr":["udp%3A%2F%2Ftracker.openbittorrent.com%3A80","udp%3A%2F%2Fopen.demonii.com%3A1337","udp%3A%2F%2Ftracker.coppersurfer.tk%3A6969","udp%3A%2F%2Fexodus.desync.com%3A6969"],"infoHash":"fb548b777e7269267d13c9d6d6193f64b4331990","infoHashBuffer":{"type":"Buffer","data":[251,84,139,119,126,114,105,38,125,19,201,214,214,25,63,100,180,51,25,144]},"announce":[],"urlList":[]}}